<mxfile host="app.diagrams.net" modified="2021-11-11T08:31:23.480Z" agent="5.0 (Windows NT 10.0; Win64; x64) AppleWebKit/537.36 (KHTML, like Gecko) Chrome/95.0.4638.69 Safari/537.36 Edg/95.0.1020.44" etag="y2DpPYxmXzI1tRETf7aj" version="15.7.2" type="github" pages="2">
  <diagram id="6F1woQdianH5xqDm68fj" name="Seite-2">
    <mxGraphModel dx="782" dy="468" grid="1" gridSize="10" guides="1" tooltips="1" connect="1" arrows="1" fold="1" page="1" pageScale="1" pageWidth="827" pageHeight="1169" math="0" shadow="0">
      <root>
        <mxCell id="LaAg7UQYB_QFaEPeOb5D-0" />
        <mxCell id="LaAg7UQYB_QFaEPeOb5D-1" parent="LaAg7UQYB_QFaEPeOb5D-0" />
        <mxCell id="LaAg7UQYB_QFaEPeOb5D-2" value="Spieler" style="shape=umlActor;html=1;verticalLabelPosition=bottom;verticalAlign=top;align=center;" parent="LaAg7UQYB_QFaEPeOb5D-1" vertex="1">
          <mxGeometry x="210" y="200" width="30" height="60" as="geometry" />
        </mxCell>
        <mxCell id="LaAg7UQYB_QFaEPeOb5D-3" value="Exploding Kittens" style="shape=rect;html=1;verticalAlign=top;fontStyle=1;whiteSpace=wrap;align=center;" parent="LaAg7UQYB_QFaEPeOb5D-1" vertex="1">
          <mxGeometry x="310" y="40" width="500" height="430" as="geometry" />
        </mxCell>
        <mxCell id="LaAg7UQYB_QFaEPeOb5D-4" value="Spielerkonto anlegen" style="ellipse;whiteSpace=wrap;html=1;" parent="LaAg7UQYB_QFaEPeOb5D-1" vertex="1">
          <mxGeometry x="390" y="70" width="140" height="70" as="geometry" />
        </mxCell>
        <mxCell id="LaAg7UQYB_QFaEPeOb5D-5" value="Im System einloggen" style="ellipse;whiteSpace=wrap;html=1;" parent="LaAg7UQYB_QFaEPeOb5D-1" vertex="1">
          <mxGeometry x="390" y="160" width="140" height="70" as="geometry" />
        </mxCell>
        <mxCell id="LaAg7UQYB_QFaEPeOb5D-7" value="Spiel starten" style="ellipse;whiteSpace=wrap;html=1;" parent="LaAg7UQYB_QFaEPeOb5D-1" vertex="1">
          <mxGeometry x="390" y="260" width="140" height="70" as="geometry" />
        </mxCell>
        <mxCell id="LaAg7UQYB_QFaEPeOb5D-8" value="Zug machen" style="ellipse;whiteSpace=wrap;html=1;" parent="LaAg7UQYB_QFaEPeOb5D-1" vertex="1">
          <mxGeometry x="390" y="360" width="140" height="70" as="geometry" />
        </mxCell>
        <mxCell id="LaAg7UQYB_QFaEPeOb5D-9" value="" style="edgeStyle=none;html=1;endArrow=none;verticalAlign=bottom;rounded=0;entryX=0;entryY=0.5;entryDx=0;entryDy=0;" parent="LaAg7UQYB_QFaEPeOb5D-1" target="LaAg7UQYB_QFaEPeOb5D-4" edge="1">
          <mxGeometry width="160" relative="1" as="geometry">
            <mxPoint x="250" y="200" as="sourcePoint" />
            <mxPoint x="380" y="230" as="targetPoint" />
          </mxGeometry>
        </mxCell>
        <mxCell id="LaAg7UQYB_QFaEPeOb5D-10" value="" style="edgeStyle=none;html=1;endArrow=none;verticalAlign=bottom;rounded=0;entryX=0;entryY=0.5;entryDx=0;entryDy=0;" parent="LaAg7UQYB_QFaEPeOb5D-1" target="LaAg7UQYB_QFaEPeOb5D-5" edge="1">
          <mxGeometry width="160" relative="1" as="geometry">
            <mxPoint x="254" y="230" as="sourcePoint" />
            <mxPoint x="414" y="230" as="targetPoint" />
          </mxGeometry>
        </mxCell>
        <mxCell id="LaAg7UQYB_QFaEPeOb5D-11" value="" style="edgeStyle=none;html=1;endArrow=none;verticalAlign=bottom;rounded=0;" parent="LaAg7UQYB_QFaEPeOb5D-1" edge="1">
          <mxGeometry width="160" relative="1" as="geometry">
            <mxPoint x="260" y="260" as="sourcePoint" />
            <mxPoint x="390" y="295" as="targetPoint" />
          </mxGeometry>
        </mxCell>
        <mxCell id="LaAg7UQYB_QFaEPeOb5D-12" value="" style="edgeStyle=none;html=1;endArrow=none;verticalAlign=bottom;rounded=0;entryX=0;entryY=0.5;entryDx=0;entryDy=0;" parent="LaAg7UQYB_QFaEPeOb5D-1" target="LaAg7UQYB_QFaEPeOb5D-8" edge="1">
          <mxGeometry width="160" relative="1" as="geometry">
            <mxPoint x="260" y="270" as="sourcePoint" />
            <mxPoint x="370" y="460" as="targetPoint" />
          </mxGeometry>
        </mxCell>
        <mxCell id="LaAg7UQYB_QFaEPeOb5D-13" value="&lt;br&gt;&lt;br&gt;Spieler spielt Angriff oder Hops" style="html=1;shape=mxgraph.sysml.useCaseExtPt;whiteSpace=wrap;align=center;" parent="LaAg7UQYB_QFaEPeOb5D-1" vertex="1">
          <mxGeometry x="610" y="320" width="150" height="60" as="geometry" />
        </mxCell>
        <mxCell id="LaAg7UQYB_QFaEPeOb5D-14" value="Karte ziehen" style="resizable=0;html=1;verticalAlign=middle;align=center;labelBackgroundColor=none;fontStyle=1;" parent="LaAg7UQYB_QFaEPeOb5D-13" connectable="0" vertex="1">
          <mxGeometry x="75" y="12.75" as="geometry">
            <mxPoint x="-3" y="-4" as="offset" />
          </mxGeometry>
        </mxCell>
        <mxCell id="LaAg7UQYB_QFaEPeOb5D-15" value=",&lt;br&gt;Spieler will keine Karte spielen" style="html=1;shape=mxgraph.sysml.useCaseExtPt;whiteSpace=wrap;align=center;" parent="LaAg7UQYB_QFaEPeOb5D-1" vertex="1">
          <mxGeometry x="610" y="390" width="150" height="60" as="geometry" />
        </mxCell>
        <mxCell id="LaAg7UQYB_QFaEPeOb5D-16" value="Karten Spielen" style="resizable=0;html=1;verticalAlign=middle;align=center;labelBackgroundColor=none;fontStyle=1;" parent="LaAg7UQYB_QFaEPeOb5D-15" connectable="0" vertex="1">
          <mxGeometry x="75" y="12.75" as="geometry">
            <mxPoint x="2" y="-2" as="offset" />
          </mxGeometry>
        </mxCell>
        <mxCell id="zrvLJ-EqaouV1MmhGX9n-0" value="&amp;lt;&amp;lt;extend&amp;gt;&amp;gt;" style="edgeStyle=none;html=1;startArrow=open;endArrow=none;startSize=12;verticalAlign=bottom;dashed=1;labelBackgroundColor=none;rounded=0;" edge="1" parent="LaAg7UQYB_QFaEPeOb5D-1">
          <mxGeometry width="160" relative="1" as="geometry">
            <mxPoint x="530" y="400" as="sourcePoint" />
            <mxPoint x="610" y="420" as="targetPoint" />
          </mxGeometry>
        </mxCell>
        <mxCell id="zrvLJ-EqaouV1MmhGX9n-1" value="&amp;lt;&amp;lt;extend&amp;gt;&amp;gt;" style="edgeStyle=none;html=1;startArrow=open;endArrow=none;startSize=12;verticalAlign=bottom;dashed=1;labelBackgroundColor=none;rounded=0;entryX=0;entryY=0.5;entryDx=0;entryDy=0;entryPerimeter=0;exitX=1;exitY=0.5;exitDx=0;exitDy=0;" edge="1" parent="LaAg7UQYB_QFaEPeOb5D-1" source="LaAg7UQYB_QFaEPeOb5D-8" target="LaAg7UQYB_QFaEPeOb5D-13">
          <mxGeometry width="160" relative="1" as="geometry">
            <mxPoint x="470" y="260" as="sourcePoint" />
            <mxPoint x="630" y="260" as="targetPoint" />
          </mxGeometry>
        </mxCell>
      </root>
    </mxGraphModel>
  </diagram>
  <diagram id="RYIv15WG0DeL-ki6rHGi" name="Seite-3">
    <mxGraphModel dx="782" dy="468" grid="1" gridSize="10" guides="1" tooltips="1" connect="1" arrows="1" fold="1" page="1" pageScale="1" pageWidth="827" pageHeight="1169" math="0" shadow="0">
      <root>
        <mxCell id="Notwp4Q2PA6i_bN2rNuf-0" />
        <mxCell id="Notwp4Q2PA6i_bN2rNuf-1" parent="Notwp4Q2PA6i_bN2rNuf-0" />
        <mxCell id="Notwp4Q2PA6i_bN2rNuf-2" value="Spieler am Zug" style="shape=umlActor;html=1;verticalLabelPosition=bottom;verticalAlign=top;align=center;" vertex="1" parent="Notwp4Q2PA6i_bN2rNuf-1">
          <mxGeometry x="80" y="400" width="30" height="60" as="geometry" />
        </mxCell>
        <mxCell id="Notwp4Q2PA6i_bN2rNuf-5" value="Exploding Kittens" style="shape=rect;html=1;verticalAlign=top;fontStyle=1;whiteSpace=wrap;align=center;" vertex="1" parent="Notwp4Q2PA6i_bN2rNuf-1">
          <mxGeometry x="210" y="170" width="560" height="740" as="geometry" />
        </mxCell>
        <mxCell id="Notwp4Q2PA6i_bN2rNuf-6" value="Exploding Kitten ziehen" style="ellipse;whiteSpace=wrap;html=1;" vertex="1" parent="Notwp4Q2PA6i_bN2rNuf-1">
          <mxGeometry x="230" y="280" width="130" height="50" as="geometry" />
        </mxCell>
        <mxCell id="Notwp4Q2PA6i_bN2rNuf-10" value="Angriff spielen" style="ellipse;whiteSpace=wrap;html=1;" vertex="1" parent="Notwp4Q2PA6i_bN2rNuf-1">
          <mxGeometry x="238.5" y="400" width="130" height="50" as="geometry" />
        </mxCell>
        <mxCell id="Notwp4Q2PA6i_bN2rNuf-11" value="Hops spielen" style="ellipse;whiteSpace=wrap;html=1;" vertex="1" parent="Notwp4Q2PA6i_bN2rNuf-1">
          <mxGeometry x="238.5" y="490" width="130" height="50" as="geometry" />
        </mxCell>
        <mxCell id="Notwp4Q2PA6i_bN2rNuf-12" value="Wunsch spielen" style="ellipse;whiteSpace=wrap;html=1;" vertex="1" parent="Notwp4Q2PA6i_bN2rNuf-1">
          <mxGeometry x="238.5" y="580" width="130" height="50" as="geometry" />
        </mxCell>
        <mxCell id="Notwp4Q2PA6i_bN2rNuf-13" value="Mischen spielen" style="ellipse;whiteSpace=wrap;html=1;" vertex="1" parent="Notwp4Q2PA6i_bN2rNuf-1">
          <mxGeometry x="238.5" y="670" width="130" height="50" as="geometry" />
        </mxCell>
        <mxCell id="Notwp4Q2PA6i_bN2rNuf-14" value="Blick in die Zukunft spielen" style="ellipse;whiteSpace=wrap;html=1;" vertex="1" parent="Notwp4Q2PA6i_bN2rNuf-1">
          <mxGeometry x="238.5" y="760" width="130" height="50" as="geometry" />
        </mxCell>
        <mxCell id="Notwp4Q2PA6i_bN2rNuf-15" value="KatzenpÃ¤rchen spielen" style="ellipse;whiteSpace=wrap;html=1;" vertex="1" parent="Notwp4Q2PA6i_bN2rNuf-1">
          <mxGeometry x="238.5" y="840" width="130" height="50" as="geometry" />
        </mxCell>
        <mxCell id="Notwp4Q2PA6i_bN2rNuf-17" value="Spieler nicht am Zug" style="shape=umlActor;html=1;verticalLabelPosition=bottom;verticalAlign=top;align=center;" vertex="1" parent="Notwp4Q2PA6i_bN2rNuf-1">
          <mxGeometry x="80" y="210" width="30" height="60" as="geometry" />
        </mxCell>
        <mxCell id="Notwp4Q2PA6i_bN2rNuf-21" value="" style="edgeStyle=none;html=1;endArrow=none;verticalAlign=bottom;rounded=0;startArrow=none;" edge="1" parent="Notwp4Q2PA6i_bN2rNuf-1" source="Notwp4Q2PA6i_bN2rNuf-9">
          <mxGeometry width="160" relative="1" as="geometry">
            <mxPoint x="110" y="239.5" as="sourcePoint" />
            <mxPoint x="230" y="240" as="targetPoint" />
            <Array as="points">
              <mxPoint x="240" y="239.5" />
            </Array>
          </mxGeometry>
        </mxCell>
        <mxCell id="Notwp4Q2PA6i_bN2rNuf-9" value="NÃ! spielen" style="ellipse;whiteSpace=wrap;html=1;" vertex="1" parent="Notwp4Q2PA6i_bN2rNuf-1">
          <mxGeometry x="230" y="210" width="130" height="50" as="geometry" />
        </mxCell>
        <mxCell id="Notwp4Q2PA6i_bN2rNuf-25" value="" style="edgeStyle=none;html=1;endArrow=none;verticalAlign=bottom;rounded=0;entryX=0;entryY=0.5;entryDx=0;entryDy=0;" edge="1" parent="Notwp4Q2PA6i_bN2rNuf-1" target="Notwp4Q2PA6i_bN2rNuf-9">
          <mxGeometry width="160" relative="1" as="geometry">
            <mxPoint x="120" y="239.5" as="sourcePoint" />
            <mxPoint x="230" y="230" as="targetPoint" />
          </mxGeometry>
        </mxCell>
        <mxCell id="Notwp4Q2PA6i_bN2rNuf-27" value="" style="edgeStyle=none;html=1;endArrow=none;verticalAlign=bottom;rounded=0;entryX=0;entryY=0.5;entryDx=0;entryDy=0;" edge="1" parent="Notwp4Q2PA6i_bN2rNuf-1" target="Notwp4Q2PA6i_bN2rNuf-6">
          <mxGeometry width="160" relative="1" as="geometry">
            <mxPoint x="120" y="390" as="sourcePoint" />
            <mxPoint x="280" y="390" as="targetPoint" />
          </mxGeometry>
        </mxCell>
        <mxCell id="HHM2Nzrg_tB8TiEfupUY-0" value="" style="edgeStyle=none;html=1;endArrow=block;endFill=0;endSize=12;verticalAlign=bottom;rounded=0;exitX=0.5;exitY=0;exitDx=0;exitDy=0;exitPerimeter=0;" edge="1" parent="Notwp4Q2PA6i_bN2rNuf-1" source="Notwp4Q2PA6i_bN2rNuf-2">
          <mxGeometry width="160" relative="1" as="geometry">
            <mxPoint x="280" y="380" as="sourcePoint" />
            <mxPoint x="95" y="290" as="targetPoint" />
          </mxGeometry>
        </mxCell>
        <mxCell id="HHM2Nzrg_tB8TiEfupUY-1" value="" style="edgeStyle=none;html=1;endArrow=none;verticalAlign=bottom;rounded=0;entryX=0;entryY=0.5;entryDx=0;entryDy=0;" edge="1" parent="Notwp4Q2PA6i_bN2rNuf-1" target="Notwp4Q2PA6i_bN2rNuf-13">
          <mxGeometry width="160" relative="1" as="geometry">
            <mxPoint x="120" y="460" as="sourcePoint" />
            <mxPoint x="280" y="460" as="targetPoint" />
          </mxGeometry>
        </mxCell>
        <mxCell id="HHM2Nzrg_tB8TiEfupUY-2" value="" style="edgeStyle=none;html=1;endArrow=none;verticalAlign=bottom;rounded=0;entryX=0;entryY=0.5;entryDx=0;entryDy=0;" edge="1" parent="Notwp4Q2PA6i_bN2rNuf-1" target="Notwp4Q2PA6i_bN2rNuf-12">
          <mxGeometry width="160" relative="1" as="geometry">
            <mxPoint x="120" y="440" as="sourcePoint" />
            <mxPoint x="280" y="440" as="targetPoint" />
          </mxGeometry>
        </mxCell>
        <mxCell id="HHM2Nzrg_tB8TiEfupUY-3" value="" style="edgeStyle=none;html=1;endArrow=none;verticalAlign=bottom;rounded=0;entryX=0;entryY=0.5;entryDx=0;entryDy=0;" edge="1" parent="Notwp4Q2PA6i_bN2rNuf-1" target="Notwp4Q2PA6i_bN2rNuf-11">
          <mxGeometry width="160" relative="1" as="geometry">
            <mxPoint x="120" y="420" as="sourcePoint" />
            <mxPoint x="280" y="420" as="targetPoint" />
          </mxGeometry>
        </mxCell>
        <mxCell id="HHM2Nzrg_tB8TiEfupUY-4" value="" style="edgeStyle=none;html=1;endArrow=none;verticalAlign=bottom;rounded=0;entryX=0;entryY=0.5;entryDx=0;entryDy=0;" edge="1" parent="Notwp4Q2PA6i_bN2rNuf-1" target="Notwp4Q2PA6i_bN2rNuf-10">
          <mxGeometry width="160" relative="1" as="geometry">
            <mxPoint x="120" y="410" as="sourcePoint" />
            <mxPoint x="300" y="429.5" as="targetPoint" />
          </mxGeometry>
        </mxCell>
        <mxCell id="HHM2Nzrg_tB8TiEfupUY-5" value="" style="edgeStyle=none;html=1;endArrow=none;verticalAlign=bottom;rounded=0;entryX=0;entryY=0.5;entryDx=0;entryDy=0;" edge="1" parent="Notwp4Q2PA6i_bN2rNuf-1" target="Notwp4Q2PA6i_bN2rNuf-15">
          <mxGeometry width="160" relative="1" as="geometry">
            <mxPoint x="100" y="490" as="sourcePoint" />
            <mxPoint x="190" y="540" as="targetPoint" />
          </mxGeometry>
        </mxCell>
        <mxCell id="HHM2Nzrg_tB8TiEfupUY-6" value="" style="edgeStyle=none;html=1;endArrow=none;verticalAlign=bottom;rounded=0;entryX=0;entryY=0.5;entryDx=0;entryDy=0;" edge="1" parent="Notwp4Q2PA6i_bN2rNuf-1" target="Notwp4Q2PA6i_bN2rNuf-14">
          <mxGeometry width="160" relative="1" as="geometry">
            <mxPoint x="120" y="490" as="sourcePoint" />
            <mxPoint x="240" y="520" as="targetPoint" />
          </mxGeometry>
        </mxCell>
        <mxCell id="WBfomwX1NmuAMCi2ByhZ-0" value="Zug ohne Karte ziehen beenden" style="ellipse;whiteSpace=wrap;html=1;" vertex="1" parent="Notwp4Q2PA6i_bN2rNuf-1">
          <mxGeometry x="470" y="460" width="131" height="50" as="geometry" />
        </mxCell>
        <mxCell id="WBfomwX1NmuAMCi2ByhZ-3" value="&amp;lt;&amp;lt;include&amp;gt;&amp;gt;" style="edgeStyle=none;html=1;endArrow=open;verticalAlign=bottom;dashed=1;labelBackgroundColor=none;rounded=0;exitX=1;exitY=0.5;exitDx=0;exitDy=0;entryX=0;entryY=0.5;entryDx=0;entryDy=0;" edge="1" parent="Notwp4Q2PA6i_bN2rNuf-1" source="Notwp4Q2PA6i_bN2rNuf-10" target="WBfomwX1NmuAMCi2ByhZ-0">
          <mxGeometry width="160" relative="1" as="geometry">
            <mxPoint x="250" y="320" as="sourcePoint" />
            <mxPoint x="410" y="320" as="targetPoint" />
          </mxGeometry>
        </mxCell>
        <mxCell id="WBfomwX1NmuAMCi2ByhZ-4" value="&lt;br&gt;Exploding Kitten zurÃ¼ck in den Kartenstapel legen" style="html=1;shape=mxgraph.sysml.useCaseExtPt;whiteSpace=wrap;align=center;" vertex="1" parent="Notwp4Q2PA6i_bN2rNuf-1">
          <mxGeometry x="601" y="260" width="149" height="90" as="geometry" />
        </mxCell>
        <mxCell id="WBfomwX1NmuAMCi2ByhZ-5" value="&lt;br&gt;EntschÃ¤rfen spielen" style="resizable=0;html=1;verticalAlign=middle;align=center;labelBackgroundColor=none;fontStyle=1;" connectable="0" vertex="1" parent="WBfomwX1NmuAMCi2ByhZ-4">
          <mxGeometry x="74.5" y="19.125" as="geometry">
            <mxPoint x="-3" y="-4" as="offset" />
          </mxGeometry>
        </mxCell>
        <mxCell id="WBfomwX1NmuAMCi2ByhZ-8" value="Spieler scheidet aus" style="ellipse;whiteSpace=wrap;html=1;" vertex="1" parent="Notwp4Q2PA6i_bN2rNuf-1">
          <mxGeometry x="510" y="390" width="124.5" height="50" as="geometry" />
        </mxCell>
        <mxCell id="WBfomwX1NmuAMCi2ByhZ-9" value="&#xa;Condition: {EntschÃ¤rfen auf der Hand == True}&#xa;" style="shape=note;size=11;spacingLeft=5;align=left;whiteSpace=wrap;" vertex="1" parent="Notwp4Q2PA6i_bN2rNuf-1">
          <mxGeometry x="380" y="260" width="220" height="30" as="geometry" />
        </mxCell>
        <mxCell id="WBfomwX1NmuAMCi2ByhZ-10" value="&amp;lt;&amp;lt;extend&amp;gt;&amp;gt;" style="align=right;html=1;verticalAlign=bottom;rounded=0;labelBackgroundColor=none;endArrow=open;endSize=12;dashed=1;exitX=0;exitY=0.625;exitDx=0;exitDy=0;exitPerimeter=0;" edge="1" parent="Notwp4Q2PA6i_bN2rNuf-1" source="WBfomwX1NmuAMCi2ByhZ-4">
          <mxGeometry relative="1" as="geometry">
            <mxPoint x="360" y="300" as="targetPoint" />
            <mxPoint x="470" y="309" as="sourcePoint" />
          </mxGeometry>
        </mxCell>
        <mxCell id="WBfomwX1NmuAMCi2ByhZ-11" value="" style="edgeStyle=none;html=1;endArrow=none;rounded=0;labelBackgroundColor=none;dashed=1;exitX=0.5;exitY=1;" edge="1" source="WBfomwX1NmuAMCi2ByhZ-9" parent="Notwp4Q2PA6i_bN2rNuf-1">
          <mxGeometry relative="1" as="geometry">
            <mxPoint x="500" y="310" as="targetPoint" />
          </mxGeometry>
        </mxCell>
        <mxCell id="WBfomwX1NmuAMCi2ByhZ-14" value="&#xa;Condition: {EntschÃ¤rfen auf der Hand == False}&#xa;" style="shape=note;size=15;spacingLeft=5;align=left;whiteSpace=wrap;" vertex="1" parent="Notwp4Q2PA6i_bN2rNuf-1">
          <mxGeometry x="382" y="330" width="219" height="30" as="geometry" />
        </mxCell>
        <mxCell id="WBfomwX1NmuAMCi2ByhZ-15" value="&amp;lt;&amp;lt;extend&amp;gt;&amp;gt;" style="align=right;html=1;verticalAlign=bottom;rounded=0;labelBackgroundColor=none;endArrow=open;endSize=12;dashed=1;entryX=0.5;entryY=1;entryDx=0;entryDy=0;exitX=0;exitY=0.5;exitDx=0;exitDy=0;" edge="1" parent="Notwp4Q2PA6i_bN2rNuf-1" source="WBfomwX1NmuAMCi2ByhZ-8" target="Notwp4Q2PA6i_bN2rNuf-6">
          <mxGeometry relative="1" as="geometry">
            <mxPoint x="360" y="399" as="targetPoint" />
            <mxPoint x="520" y="399" as="sourcePoint" />
          </mxGeometry>
        </mxCell>
        <mxCell id="WBfomwX1NmuAMCi2ByhZ-16" value="" style="edgeStyle=none;html=1;endArrow=none;rounded=0;labelBackgroundColor=none;dashed=1;exitX=0.474;exitY=1.017;exitDx=0;exitDy=0;exitPerimeter=0;" edge="1" source="WBfomwX1NmuAMCi2ByhZ-14" parent="Notwp4Q2PA6i_bN2rNuf-1">
          <mxGeometry relative="1" as="geometry">
            <mxPoint x="460" y="399" as="targetPoint" />
            <mxPoint x="496" y="370" as="sourcePoint" />
          </mxGeometry>
        </mxCell>
      </root>
    </mxGraphModel>
  </diagram>
</mxfile>
